<svg xmlns="http://www.w3.org/2000/svg" data-name="Layer 1" width="649.67538" height="568.22024" viewBox="0 0 649.67538 568.22024" xmlns:xlink="http://www.w3.org/1999/xlink"><path d="M397.23858,566.04035,390.539,618.81819l-9.85909-59.95407c-47.3817-18.18194-102.78179-21.713-102.78179-21.713s-12.22552,114.50728,28.139,162.38683,82.92182,40.60129,118.03379,11.00042c35.1114-29.60039,49.48123-70.31412,9.11675-118.19368C424.20327,581.68766,411.521,573.04476,397.23858,566.04035Z" transform="translate(-275.16231 -165.88988)" fill="#f2f2f2"/><path d="M384.1004,626.79762l1.98958,2.36c22.98681,27.551,36.40476,52.8555,40.0327,75.5803.05864.33032.09573.65881.15431.98919l-1.53846.23773-1.48187.20991c-3.64942-24.76543-19.47993-50.77428-39.52347-74.8103-.63842-.781-1.28663-1.57364-1.95824-2.34655-8.57477-10.1-17.832-19.82437-27.217-28.9415-.72021-.712-1.46191-1.42587-2.20361-2.13968-12.44963-11.96994-25.01434-22.84351-36.237-32.03036-.7903-.653-1.59224-1.296-2.38439-1.92739-19.05943-15.4717-33.9044-25.802-37.21424-28.06849-.39875-.28343-.62465-.43273-.67573-.46958l.844-1.25121.00183-.02155.85568-1.26106c.05113.03692.81117.53546,2.18233,1.49814,5.15056,3.57268,18.987,13.39417,36.1433,27.27236.77059.62957,1.57259,1.27267,2.36284,1.92555,9.11521,7.44575,19.072,15.96086,29.1037,25.25221q3.78542,3.49455,7.37706,6.9724c.75332.704,1.495,1.41783,2.21523,2.12988Q372.14864,612.73905,384.1004,626.79762Z" transform="translate(-275.16231 -165.88988)" fill="#fff"/><path d="M315.8701,561.67759c-.6941.76509-1.39989,1.54-2.13716,2.30139a84.299,84.299,0,0,1-6.3038,5.89408,82.00518,82.00518,0,0,1-32.26683,16.72907c.03131,1.03285.06269,2.06578.09217,3.12018a85.04164,85.04164,0,0,0,34.14459-17.51256,87.22471,87.22471,0,0,0,6.71826-6.30338c.72551-.75156,1.43131-1.52651,2.11561-2.30323a84.3256,84.3256,0,0,0,13.87772-21.35332q-1.56615-.32858-3.06776-.65165A81.72351,81.72351,0,0,1,315.8701,561.67759Z" transform="translate(-275.16231 -165.88988)" fill="#fff"/><path d="M354.7137,595.82775q-1.15019,1.08949-2.35939,2.109c-.23552.21856-.49252.43522-.7379.64208a82.4401,82.4401,0,0,1-74.51659,16.59042c.1138,1.08323.22759,2.1666.36294,3.25167a85.5013,85.5013,0,0,0,76.12358-17.5054c.32717-.27581.65427-.55157.97158-.83909.80793-.70112,1.59437-1.40414,2.371-2.11878a85.04917,85.04917,0,0,0,24.39782-41.355c-.955-.37409-1.91-.74825-2.87668-1.11248A81.874,81.874,0,0,1,354.7137,595.82775Z" transform="translate(-275.16231 -165.88988)" fill="#fff"/><path d="M384.1004,626.79762c-.75869.75952-1.53717,1.49572-2.32545,2.22029-.84674.77374-1.70328,1.53585-2.57954,2.27457a82.66307,82.66307,0,0,1-98.92522,5.60818c.27211,1.38968.5343,2.76759.82973,4.13747a85.69022,85.69022,0,0,0,100.06542-7.409c.87626-.73872,1.74266-1.48914,2.56785-2.26471.80983-.72274,1.58831-1.45893,2.35679-2.20683a85.43958,85.43958,0,0,0,25.37276-57.38712c-.97424-.6577-1.97364-1.27419-2.98289-1.90237A82.39644,82.39644,0,0,1,384.1004,626.79762Z" transform="translate(-275.16231 -165.88988)" fill="#fff"/><path d="M648.03621,300.20693V215.13007a49.24034,49.24034,0,0,0-49.24-49.24019H418.54942a49.24029,49.24029,0,0,0-49.2406,49.24V271.632h-3.16709v19.90855h3.16709V312.7763h-3.16709v30.52644h3.16709V356.5751h-3.16709v30.52643h3.16709v294.7669a49.23993,49.23993,0,0,0,49.23995,49.24019H598.79561a49.24028,49.24028,0,0,0,49.2406-49.24V360.76613h3.10552v-60.5592Z" transform="translate(-275.16231 -165.88988)" fill="#3f3d56"/><path d="M600.78268,178.70047H577.2545a17.47031,17.47031,0,0,1-16.17511,24.06836H457.81825a17.4703,17.4703,0,0,1-16.17512-24.06839H419.66775a36.772,36.772,0,0,0-36.772,36.772V681.526a36.772,36.772,0,0,0,36.772,36.77205h181.115a36.772,36.772,0,0,0,36.772-36.772h0V215.47244A36.772,36.772,0,0,0,600.78268,178.70047Z" transform="translate(-275.16231 -165.88988)" fill="#fff"/><path d="M605.33827,340.8917H415.11207a5.0058,5.0058,0,0,1-5-5V258.70616a5.0058,5.0058,0,0,1,5-5h190.2262a5.00573,5.00573,0,0,1,5,5V335.8917A5.00573,5.00573,0,0,1,605.33827,340.8917Z" transform="translate(-275.16231 -165.88988)" fill="#6c63ff"/><path d="M587.22522,377.41807h-154a5.5,5.5,0,0,1,0-11h154a5.5,5.5,0,0,1,0,11Z" transform="translate(-275.16231 -165.88988)" fill="#6c63ff"/><path d="M587.22523,405.41807h-154a6,6,0,0,1,0-12h154a6,6,0,0,1,0,12Z" transform="translate(-275.16231 -165.88988)" fill="#e4e4e4"/><path d="M587.22523,432.91807h-154a6,6,0,0,1,0-12h154a6,6,0,0,1,0,12Z" transform="translate(-275.16231 -165.88988)" fill="#e4e4e4"/><path d="M605.33827,571.8917H415.11207a5.0058,5.0058,0,0,1-5-5V489.70616a5.0058,5.0058,0,0,1,5-5h190.2262a5.00573,5.00573,0,0,1,5,5V566.8917A5.00573,5.00573,0,0,1,605.33827,571.8917Z" transform="translate(-275.16231 -165.88988)" fill="#e4e4e4"/><path d="M587.22523,608.91807h-154a6,6,0,0,1,0-12h154a6,6,0,0,1,0,12Z" transform="translate(-275.16231 -165.88988)" fill="#e4e4e4"/><path d="M587.22523,636.41807h-154a6,6,0,0,1,0-12h154a6,6,0,0,1,0,12Z" transform="translate(-275.16231 -165.88988)" fill="#e4e4e4"/><path d="M587.22523,663.91807h-154a6,6,0,0,1,0-12h154a6,6,0,0,1,0,12Z" transform="translate(-275.16231 -165.88988)" fill="#e4e4e4"/><path d="M760.06605,312.22721c-1.93457-14.18963-4.36084-29.42431-14.3689-39.66754a33.65518,33.65518,0,0,0-48.62622.5033c-7.28515,7.77185-10.50244,18.68475-10.79687,29.33325s2.07714,21.17865,4.708,31.50122a97.0913,97.0913,0,0,0,40.52124-7.97583,65.28916,65.28916,0,0,1,9.71558-3.81427c3.376-.85925,5.78247,1.303,8.92285,2.81073l1.72388-3.30078c1.41113,2.62616,5.78076,1.84772,7.36572-.67737C760.81605,318.41483,760.46888,315.18107,760.06605,312.22721Z" transform="translate(-275.16231 -165.88988)" fill="#2f2e41"/><polygon points="612.434 535.007 602.208 541.77 571.257 505.545 586.349 495.564 612.434 535.007" fill="#9e616a"/><path d="M896.7595,709.08432,863.787,730.89015l-.27582-.417a15.38729,15.38729,0,0,1,4.34573-21.32122l.00081-.00054,20.13853-13.31819Z" transform="translate(-275.16231 -165.88988)" fill="#2f2e41"/><polygon points="480.429 553.116 468.169 553.116 462.337 505.828 480.431 505.829 480.429 553.116" fill="#9e616a"/><path d="M758.71777,730.89015l-39.53076-.00146v-.5a15.3873,15.3873,0,0,1,15.38647-15.38623h.001l24.144.001Z" transform="translate(-275.16231 -165.88988)" fill="#2f2e41"/><path d="M668.3639,394.03709l-46.28906-33.06561a8.99743,8.99743,0,1,0-10.80762,7.74816c5.78613,4.85816,48.04785,46.88825,54.09888,44.67127,6.1416-2.25012,32.99341-6.32324,32.99341-6.32324l.74755-25.4953Z" transform="translate(-275.16231 -165.88988)" fill="#9e616a"/><path d="M704.73272,454.19782l.437,58.1781s10.01741,86.201,13.712,100.76318,18.69148,81.94564,18.69148,81.94564l24.3788-3.93292-15.69975-88.09791,4.74535-73.017,27.36445,73.178L847.847,675.848l17.61024-14.2095-60.48051-88.88116-18.47283-72.811s2.29785-37.66031-18.40081-52.16322Z" transform="translate(-275.16231 -165.88988)" fill="#2f2e41"/><circle cx="443.5739" cy="133.65539" r="26.72083" fill="#9e616a"/><rect x="722.98731" y="465.33587" width="24.29166" height="31.57916" transform="translate(-279.66359 789.41207) rotate(-65.86746)" fill="#2f2e41"/><path d="M593.23271,362.65743" transform="translate(-275.16231 -165.88988)" fill="#6c63ff"/><path d="M761.53382,350.95884c-3.14892-6.267-4.67895-14.009-11.39209-16.04077-4.5332-1.372-22.86841.68408-27,3-6.87231,3.85236-.64453,11.07111-4.699,17.82642q-6.61121,11.01552-13.22241,22.031c-3.03,5.04852-6.0918,10.16889-7.73023,15.82434-1.63818,5.65546-1.717,12.00305,1.074,17.18756,2.4978,4.64045,7.02294,7.93158,9.53515,12.56433,2.61231,4.81806-2.07715,26.33136-4.50854,31.24341l1.167.539a263.08934,263.08934,0,0,0,48.448-1.63024c3.9873-.50489,8.12744-1.16449,11.41308-3.47895,4.83985-3.40918,6.75318-9.5954,7.949-15.39337A129.67713,129.67713,0,0,0,761.53382,350.95884Z" transform="translate(-275.16231 -165.88988)" fill="#e4e4e4"/><path d="M706.84845,411.65133c7.23924-7.1146,14.51542-14.27181,20.47486-22.48827s10.5936-17.62115,11.88744-27.68835a20.50914,20.50914,0,0,0-.64136-9.62007c-1.11054-3.049-3.56912-5.755-6.73861-6.45068-5.07194-1.11355-9.6829,2.93435-13.30226,6.6577q-16.00732,16.46812-32.01478,32.936,10.19649,13.42191,20.393,26.84353Z" transform="translate(-275.16231 -165.88988)" fill="#e4e4e4"/><path d="M785.75257,417.13127c-2.25-6.14148-6.32324-32.99323-6.32324-32.99323l-25.49512-.74756,12.4646,30.7431-34.01367,47.61615s.063.10462.17749.2912a8.99538,8.99538,0,1,0,7.54468,9.55927.62106.62106,0,0,0,.77978-.13385C744.67176,466.7169,788.00257,423.27281,785.75257,417.13127Z" transform="translate(-275.16231 -165.88988)" fill="#9e616a"/><path d="M788.34461,400.17338c-2.34008-9.87665-4.69751-19.807-8.64282-29.15894s-9.59326-18.18512-17.53711-24.50317a20.50909,20.50909,0,0,0-8.563-4.43085c-3.18359-.62805-6.77148.07483-9.00732,2.42658-3.57813,3.76318-2.50147,9.80365-1.18921,14.8277q5.80444,22.2203,11.60864,44.44061,16.76184-1.77667,33.52344-3.55347Z" transform="translate(-275.16231 -165.88988)" fill="#e4e4e4"/><path d="M752.14124,301.6237c-.83545-6.464-1.708-12.98224-3.67065-19.06879-1.96265-6.08661-5.12622-11.78747-9.66431-15.23547-7.1853-5.459-16.488-4.40613-24.54394-1.266-6.23,2.42846-12.31153,6.1195-16.70484,12.05346-4.39355,5.934-6.86108,14.40119-5.2268,22.1601q12.88989-3.58722,25.77954-7.1745l-.94068.783c5.57642,3.14221,9.81153,9.64361,11.07691,17.00482a28.7171,28.7171,0,0,1-4.53662,21.03778q8.79089-3.67337,17.58178-7.34662c3.61744-1.51153,7.489-3.25317,9.634-7.13025C753.41273,312.94608,752.83485,306.98814,752.14124,301.6237Z" transform="translate(-275.16231 -165.88988)" fill="#2f2e41"/><path d="M625.98113,343.51431,608.792,369.31226a4.46863,4.46863,0,0,1-3.75549,2.00125,4.47943,4.47943,0,0,1-4.13509-2.75491,4.12763,4.12763,0,0,1-.2689-.85745,4.51165,4.51165,0,0,1,.66976-3.37929l17.18913-25.79794a4.5,4.5,0,1,1,7.48973,4.99039Z" transform="translate(-275.16231 -165.88988)" fill="#6c63ff"/><path d="M610.17821,367.23178l-3.47923,5.19091-6.15652,5.42689a2.45095,2.45095,0,0,1-3.94221-2.627l2.69471-7.8881,3.39353-5.09311Z" transform="translate(-275.16231 -165.88988)" fill="#3f3d56"/><path d="M626.74053,329.98545l-8.6142,7.59289a2.45233,2.45233,0,0,0,.26168,3.88081l1.62984,1.086-4.71315,7.07363a1,1,0,0,0,1.66439,1.109l4.71314-7.07362,1.62985,1.086a2.45552,2.45552,0,0,0,3.39872-.675,2.46816,2.46816,0,0,0,.28357-.57793l3.69013-10.8738a2.45251,2.45251,0,0,0-3.944-2.62786Z" transform="translate(-275.16231 -165.88988)" fill="#3f3d56"/><path d="M923.647,732.99852H276.353a1.19069,1.19069,0,0,1,0-2.38137H923.647a1.19069,1.19069,0,0,1,0,2.38137Z" transform="translate(-275.16231 -165.88988)" fill="#3f3d56"/><path d="M516.97522,187.41807h-27a2,2,0,0,1,0-4h27a2,2,0,0,1,0,4Z" transform="translate(-275.16231 -165.88988)" fill="#fff"/><circle cx="255.31291" cy="19.52819" r="2" fill="#fff"/></svg>