<?xml version="1.0" ?><svg width="512px" height="512px" viewBox="0 0 512 512" id="Layer_1" style="enable-background:new 0 0 512 512;" version="1.1" xml:space="preserve" xmlns="http://www.w3.org/2000/svg" xmlns:xlink="http://www.w3.org/1999/xlink"><path d="M36.1,236.7l-0.2-0.4c-0.1-0.3-0.3-0.6-0.4-0.9c-0.3-0.6-0.5-1.1-0.7-1.7c0-0.1-0.1-0.3-0.1-0.4c-0.1-0.3-0.2-0.7-0.3-1  s-0.1-0.5-0.1-0.7s-0.1-0.5-0.1-0.7s-0.1-0.7-0.1-1.1c0-0.1,0-0.2,0-0.4c0-1,0.1-2,0.2-3c0-0.2,0.1-0.4,0.2-0.6s0.1-0.5,0.2-0.8  s0.2-0.8,0.4-1.1c0-0.1,0-0.1,0.1-0.2c0.1-0.4,0.3-0.7,0.5-1.1c0-0.1,0.1-0.1,0.1-0.2c0.2-0.3,0.4-0.6,0.5-1  c0.1-0.1,0.1-0.2,0.2-0.3c0.2-0.3,0.4-0.5,0.6-0.8l0.3-0.4c0.2-0.2,0.4-0.4,0.5-0.6s0.3-0.3,0.4-0.5l0.5-0.5  c0.2-0.2,0.4-0.4,0.5-0.5s0.4-0.3,0.6-0.5c0.2-0.1,0.3-0.3,0.5-0.4c0.8-0.6,1.7-1.1,2.6-1.5L455.3,36.1c5.4-2.3,11.6-1.3,16,2.6  c6.1,4,8.4,11.9,5.4,18.6L295.9,468.1c0,0.1,0,0.1-0.1,0.2c-0.2,0.4-0.3,0.7-0.5,1.1l-0.2,0.3c-0.2,0.3-0.4,0.6-0.5,0.9l-0.2,0.2  c-0.2,0.4-0.5,0.7-0.8,1l0,0c-0.3,0.4-0.6,0.7-0.9,1c0,0-0.1,0-0.1,0.1c-0.3,0.3-0.6,0.5-0.9,0.8l-0.3,0.2c-0.3,0.2-0.6,0.4-0.9,0.6  l-0.3,0.2c-0.3,0.2-0.7,0.4-1.1,0.6l-0.4,0.2l-0.7,0.3l-0.5,0.2c-0.3,0.1-0.6,0.2-1,0.3l-0.4,0.1c-0.4,0.1-0.8,0.2-1.2,0.3l-0.4,0.1  c-0.4,0.1-0.8,0.1-1.2,0.2h-0.1l0,0c-0.4,0-0.8,0-1.2,0c-0.2,0-0.5,0-0.7,0s-0.5,0-0.7,0l-0.5-0.1c-0.3,0-0.7-0.1-1-0.2l-0.4-0.1  c-0.4-0.1-0.7-0.2-1-0.3l-0.4-0.1c-0.3-0.1-0.7-0.2-1-0.4l-0.2-0.1l-0.3-0.1c-0.3-0.1-0.6-0.3-0.8-0.4l-0.5-0.3l-0.6-0.4  c-0.2-0.1-0.4-0.3-0.6-0.4c-0.2-0.1-0.3-0.3-0.5-0.4c-0.2-0.2-0.4-0.3-0.6-0.5c-0.2-0.2-0.3-0.3-0.4-0.4l-0.6-0.6l-0.4-0.5  c-0.1-0.2-0.3-0.4-0.5-0.6c-0.2-0.2-0.4-0.5-0.5-0.8c-0.2-0.3-0.2-0.2-0.2-0.4c-1-1.6-1.7-3.4-2.1-5.3c-0.1-0.5-0.2-1-0.2-1.5  L250.2,261L48.1,244.1h-0.2h-0.1c-0.4,0-0.8-0.1-1.2-0.2l-0.4-0.1c-0.4-0.1-0.8-0.2-1.1-0.3l-0.4-0.1c-0.3-0.1-0.7-0.2-1-0.4  c-0.2-0.1-0.3-0.1-0.5-0.2c-0.2-0.1-0.5-0.2-0.7-0.3l-0.4-0.2c-0.4-0.2-0.7-0.4-1.1-0.6l-0.2-0.2c-0.3-0.2-0.6-0.4-0.9-0.6l-0.3-0.2  c-0.3-0.2-0.6-0.5-0.9-0.8l-0.1-0.1c-0.6-0.6-1.2-1.3-1.8-2.1l-0.2-0.3C36.5,237.3,36.3,237,36.1,236.7z M265.4,232  c7.3,0.6,13.2,6.4,13.8,13.8l13,156L434.8,77.8L109.9,219.1L265.4,232z"/></svg>