<svg xmlns="http://www.w3.org/2000/svg" data-name="Layer 1" width="541" height="606" viewBox="0 0 541 606" xmlns:xlink="http://www.w3.org/1999/xlink"><path d="M847.04975,752.74227H352.02241a23.01224,23.01224,0,0,1-22.98633-22.98633V169.7286a23.01224,23.01224,0,0,1,22.98633-22.98633H847.04975a23.01223,23.01223,0,0,1,22.98633,22.98633V729.75594A23.01224,23.01224,0,0,1,847.04975,752.74227Z" transform="translate(-329.03608 -146.74227)" fill="#f2f2f2"/><path d="M822.15608,185.74227h-445.24a15.64143,15.64143,0,0,0-15.62,15.62v410.42a15.64143,15.64143,0,0,0,15.62,15.62h445.24a15.64142,15.64142,0,0,0,15.62-15.62v-410.42A15.64142,15.64142,0,0,0,822.15608,185.74227Z" transform="translate(-329.03608 -146.74227)" fill="#6c63ff"/><path d="M608.57468,374.35144c-4.32513-7.1534-9.45023-14.7911-17.47656-17.12689-9.295-2.705-18.84337,2.66857-26.94255,7.97116a785.1068,785.1068,0,0,0-69.86968,51.47911l.02443.27768q26.06891-1.79775,52.13774-3.59549c12.55653-.86592,25.54444-1.85127,36.64094-7.7913,4.21074-2.254,8.3153-5.26492,13.08677-5.47473,5.9281-.26064,11.097,3.87955,15.15908,8.20508,24.0284,25.587,30.98174,64.71558,57.93919,87.19565A855.50925,855.50925,0,0,0,608.57468,374.35144Z" transform="translate(-329.03608 -146.74227)" fill="#fff"/><path d="M756.27371,591.37542c-2.65715-3.35527-3.74288-4.14107-6.36393-7.52739q-32.01228-41.40317-60.17793-85.6033-19.13118-30.01909-36.365-61.19105-8.2047-14.81953-15.95956-29.87171-6.0176-11.67106-11.76659-23.48172c-1.09608-2.24892-2.16111-4.50817-3.22084-6.77259-2.49711-5.325-4.94777-10.67584-7.57917-15.92849-2.99845-5.98673-6.64843-12.263-12.15458-16.28521a16.58291,16.58291,0,0,0-8.6389-3.32424c-4.48227-.28952-8.61819,1.56132-12.506,3.58274a402.57534,402.57534,0,0,0-79.16143,54.58907,412.12253,412.12253,0,0,0-64.31385,71.39123c-.56849.81168-1.91271.0362-1.33892-.78063q3.389-4.79254,6.91222-9.48162A414.39962,414.39962,0,0,1,549.436,362.00731q10.29109-6.66917,20.96917-12.71282c3.58789-2.03177,7.19143-4.03769,10.85681-5.91951,3.59319-1.84566,7.40852-3.50522,11.51339-3.56725,13.9691-.21713,21.20193,15.60277,26.17014,26.24763q2.342,5.02513,4.74076,10.01928,9.06538,18.9606,18.82876,37.57489,6.02554,11.4927,12.31489,22.851,19.57307,35.36991,41.6074,69.30778c19.4596,29.96994,38.764,56.445,60.93246,84.4711C757.97993,591.05488,756.88915,592.16125,756.27371,591.37542Z" transform="translate(-329.03608 -146.74227)" fill="#e4e4e4"/><path d="M500.99918,391.7498c-.81159-.90473-1.61813-1.80946-2.435-2.7142-6.44169-7.12414-13.35366-14.16556-22.19955-18.2498a32.20737,32.20737,0,0,0-13.49351-3.12778,38.50755,38.50755,0,0,0-14.01025,3.05543c-2.10936.8427-4.17228,1.79912-6.20389,2.81757-2.32141,1.16841-4.60142,2.41437-6.87083,3.67066q-6.39018,3.5362-12.61452,7.38261-12.38468,7.654-23.99362,16.47649-6.018,4.57539-11.78754,9.45061-5.36631,4.52882-10.51551,9.30066c-.73409.67725-1.83017-.41876-1.09609-1.096.90474-.8427,1.81982-1.68022,2.73491-2.50739q3.87743-3.50522,7.87906-6.876,7.29706-6.15735,14.972-11.83907,11.93484-8.84055,24.69136-16.48166,6.37466-3.81539,12.92476-7.31026c1.31848-.7031,2.65236-1.39071,4.00163-2.04212a63.792,63.792,0,0,1,9.51258-3.87226,33.84064,33.84064,0,0,1,14.3672-1.41137,37.405,37.405,0,0,1,13.25571,4.58571c8.68534,4.85455,15.42162,12.36123,21.97716,19.687C502.75715,391.39308,501.66611,392.49427,500.99918,391.7498Z" transform="translate(-329.03608 -146.74227)" fill="#e4e4e4"/><path d="M678.9595,465.57479l20.81236-7.61222,10.3334-3.77949a105.67624,105.67624,0,0,1,10.20179-3.51362,16.09445,16.09445,0,0,1,9.23387.11765,21.28211,21.28211,0,0,1,7.20219,4.46461,58.449,58.449,0,0,1,5.90731,6.30858c2.24977,2.70372,4.46631,5.43579,6.6928,8.1587q13.78369,16.857,27.38714,33.86031,13.60313,17.003,27.02437,34.15055,13.45406,17.18943,26.723,34.52261,1.62548,2.12337,3.24817,4.24888c.59767.78282,1.94533.01107,1.33922-.7828q-13.36689-17.50749-26.92011-34.87165-13.58655-17.40566-27.36086-34.66367-13.774-17.25766-27.73423-34.36566-3.4779-4.26211-6.96729-8.51485c-1.96228-2.39156-3.90244-4.8089-6.05473-7.03486-3.95068-4.08591-8.88656-7.69676-14.79487-7.79473-3.47378-.0576-6.83564,1.04471-10.06315,2.21231-3.47938,1.25872-6.95042,2.541-10.42536,3.812l-20.9579,7.66544-5.23947,1.91637c-.92981.34008-.52815,1.83954.41231,1.49557Z" transform="translate(-329.03608 -146.74227)" fill="#e4e4e4"/><path d="M473.62576,379.75015a33.60017,33.60017,0,0,0-33.83986,2.42A482.65361,482.65361,0,0,1,494.698,394.98639C487.20731,390.59664,481.34778,383.7189,473.62576,379.75015Z" transform="translate(-329.03608 -146.74227)" fill="#fff"/><path d="M439.68181,382.15146l-2.0361,1.655c.68871-.57924,1.40469-1.12233,2.14019-1.63626C439.75116,382.16417,439.71655,382.15745,439.68181,382.15146Z" transform="translate(-329.03608 -146.74227)" fill="#f2f2f2"/><path d="M735.95944,465.65083c-2.04871-2.49382-4.26372-5.105-7.32808-6.11793l-2.861.11283a324.5172,324.5172,0,0,0,86.43508,98.81564Q774.08247,512.05611,735.95944,465.65083Z" transform="translate(-329.03608 -146.74227)" fill="#fff"/><g opacity="0.17"><path d="M791.79345,323.39222c5.76935-2.51553-5.93086-3.9799-19.20533-4.46137s-29.33268-.45483-37.8158-1.82429c-8.2044-1.32446-7.5999-3.67944-8.29-5.81314s-3.84423-4.32149-16.64635-4.79579c-15.95307-.591-42.26067,1.684-54.30349.31817-11.23819-1.2746-4.558-5.27276-20.94516-5.42579-9.3576-.08738-21.41277,1.23075-31.825,1.54885a116.01452,116.01452,0,0,1-22.08215-1.15126c-5.075-.83149-8.60986-1.88563-14.32157-2.62006-14.99567-1.92821-44.33435-1.28008-70.5202,1.19119s-48.63194,6.52118-61.29082,10.53243-16.15629,7.96063-13.20756,11.3097c1.88293,2.13857,6.70129,4.13827,18.38945,4.99762,21.86194,1.60736,60.78519-1.15935,83.37576.303,12.5907.81506,18.17647,2.83584,29.22349,3.94158,11.86819,1.18794,29.24216,1.25091,46.31211,1.22273,35.54177-.05869,71.99263-.42383,109.16139-1.09351,15.52474-.27972,31.79162-.64338,48.31132-1.97637s33.36908-3.90493,36.85433-6.316" transform="translate(-329.03608 -146.74227)" fill="#fff"/></g><circle cx="217.0152" cy="124.42378" r="2.99187" fill="#fff"/><circle cx="290.23466" cy="91.99777" r="1.79512" fill="#fff"/><circle cx="191.23466" cy="202.99777" r="1.79512" fill="#fff"/><circle cx="397.23154" cy="119.40752" r="1.79512" fill="#fff"/><circle cx="278.23154" cy="170.40752" r="1.79512" fill="#fff"/><circle cx="327.23154" cy="138.40752" r="1.79512" fill="#fff"/><circle cx="417.93247" cy="234.36521" r="1.79512" fill="#fff"/><circle cx="73.93247" cy="219.36521" r="1.79512" fill="#fff"/><path d="M837.77607,576.85225v34.93a15.64142,15.64142,0,0,1-15.62,15.62h-445.24a15.64143,15.64143,0,0,1-15.62-15.62v-43.64a264.22453,264.22453,0,0,1,70.01-7.48c56.9,1.24,112.47,16.43,168.84,24.29a659.89327,659.89327,0,0,0,199.88-2.75C812.48609,580.11226,825.1761,577.67226,837.77607,576.85225Z" transform="translate(-329.03608 -146.74227)" fill="#3f3d56"/><path d="M686.761,417.85547c-2.27357-4.20958-2.591-9.7268.20064-13.61217a22.04318,22.04318,0,0,0,8.78119,12.32609c1.65858,1.12925,3.62091,2.21254,4.1883,4.13717a4.92756,4.92756,0,0,1-.51378,3.61684,14.63438,14.63438,0,0,1-2.27087,2.96491l-.08038.30113C692.95023,425.15035,689.03457,422.06505,686.761,417.85547Z" transform="translate(-329.03608 -146.74227)" fill="#3f3d56"/><path d="M540.761,529.85547c-2.27357-4.20958-2.591-9.7268.20064-13.61217a22.04318,22.04318,0,0,0,8.78119,12.32609c1.65858,1.12925,3.62091,2.21254,4.1883,4.13717a4.92756,4.92756,0,0,1-.51378,3.61684,14.63438,14.63438,0,0,1-2.27087,2.96491l-.08038.30113C546.95023,537.15035,543.03457,534.06505,540.761,529.85547Z" transform="translate(-329.03608 -146.74227)" fill="#3f3d56"/><path d="M720.761,506.85547c-2.27357-4.20958-2.591-9.7268.20064-13.61217a22.04318,22.04318,0,0,0,8.78119,12.32609c1.65858,1.12925,3.62091,2.21254,4.1883,4.13717a4.92756,4.92756,0,0,1-.51378,3.61684,14.63438,14.63438,0,0,1-2.27087,2.96491l-.08038.30113C726.95023,514.15035,723.03457,511.06505,720.761,506.85547Z" transform="translate(-329.03608 -146.74227)" fill="#3f3d56"/><path d="M452.16255,264.0201A31.01709,31.01709,0,1,1,483.17964,233.003,31.052,31.052,0,0,1,452.16255,264.0201Z" transform="translate(-329.03608 -146.74227)" fill="#fff"/><path d="M545.59839,231.41249c-8.0763-8.47227-17.45607-16.20121-28.56-20.28545a45.90466,45.90466,0,0,0-9.56581-2.40387c-.02626-.00362-.05113.00171-.07725-.0004a1.40837,1.40837,0,0,0-.16135-.03167,36.82309,36.82309,0,0,0-13.66765.82514,37.76206,37.76206,0,0,0-6.36383,2.21691,55.65007,55.65007,0,0,0-5.97143,3.38416A38.83959,38.83959,0,0,1,468.03554,220.04a44.3928,44.3928,0,0,1-7.08718.69559,17.11875,17.11875,0,0,0-5.96219.85823,14.31053,14.31053,0,0,0-8.71529,9.43667.92793.92793,0,0,0,.41248,1.01363c.52865.37862,1.044.80819,1.59944,1.1455a4.98957,4.98957,0,0,0,1.56233.4261q1.32459.27951,2.65255.54268,4.8922.96933,9.82507,1.71609,9.98148,1.511,20.07078,2.12875a223.4829,223.4829,0,0,0,40.3964-1.21409,224.25471,224.25471,0,0,0,22.41238-3.87651A.90587.90587,0,0,0,545.59839,231.41249Z" transform="translate(-329.03608 -146.74227)" fill="#f0f0f0"/><path d="M453.61072,251.81649a45.90466,45.90466,0,0,0-9.56581-2.40387c-.02626-.00361-.05113.00172-.07725-.0004a1.40835,1.40835,0,0,0-.16135-.03166,36.82309,36.82309,0,0,0-13.66765.82514,37.76118,37.76118,0,0,0-6.36383,2.21691,55.65281,55.65281,0,0,0-5.97144,3.38415,38.83947,38.83947,0,0,1-13.19553,4.92271,44.39166,44.39166,0,0,1-7.08718.6956,17.11851,17.11851,0,0,0-5.96219.85823A14.31052,14.31052,0,0,0,382.8432,271.72a.92793.92793,0,0,0,.41248,1.01363c.52865.37862,1.044.80819,1.59944,1.14551a4.9901,4.9901,0,0,0,1.56233.4261q1.32459.27949,2.65255.54268,4.89221.96933,9.82507,1.71609,9.98148,1.511,20.07078,2.12875a223.482,223.482,0,0,0,40.3964-1.2141,224.25181,224.25181,0,0,0,22.41238-3.8765.90588.90588,0,0,0,.39608-1.50018C474.09441,263.62967,464.71464,255.90073,453.61072,251.81649Z" transform="translate(-329.03608 -146.74227)" fill="#f0f0f0"/><path d="M592.03608,681.74227h-225a6,6,0,0,1,0-12h225a6,6,0,1,1,0,12Z" transform="translate(-329.03608 -146.74227)" fill="#ccc"/><path d="M479.03608,715.24227h-112a6,6,0,0,1,0-12h112a6,6,0,1,1,0,12Z" transform="translate(-329.03608 -146.74227)" fill="#ccc"/><polygon points="107.375 384.038 124.578 370.977 132.963 379.362 104.938 398.541 107.375 384.038" fill="#2f2e41"/><path d="M420.36583,566.74387H361.51722l2.064-6.68758h0c12.79222-4.63087,5.60682-14.58464,17.77517-20.66882,29.7631-14.88155,41.28561-59.28965,36.92732-76.84429l19.50438-.82469S464.72374,538.21174,420.36583,566.74387Z" transform="translate(-329.03608 -146.74227)" fill="#2f2e41"/><path d="M470.60568,535.3075a9.89147,9.89147,0,0,1-12.78172.23913l-.03826-.03142-.00131-.04919a9.47684,9.47684,0,0,0-.37995-2.4188,6.77026,6.77026,0,0,1-.24584,1.67423l-.04929.1836-.13219-.13647c-.11417-.11773-.22466-.23731-.32842-.35529a9.97468,9.97468,0,0,1-1.51926-2.30058,29.07888,29.07888,0,0,0-8.06828-10.05664,14.118,14.118,0,0,1-1.69263-1.62867,13.95425,13.95425,0,0,1,17.52315-21.25934l.08719.051-.04528.09025a7.26871,7.26871,0,0,1-1.29692,1.87076,9.47928,9.47928,0,0,0,1.9974-1.44308l.06337-.05975.0718.04951a14.01337,14.01337,0,0,1,2.55182,2.27146l.08134.09326a6.2294,6.2294,0,0,0,4.6128,2.12867,9.88837,9.88837,0,0,1,9.57517,11.58491l-.0112.06532-.06355.01925a8.48535,8.48535,0,0,1-3.45588.43121,9.64019,9.64019,0,0,0,3.07823.771l.13713.01088-.04353.13058a9.8818,9.8818,0,0,1-2.852,4.30008l-.03754.03285-.03986.03489a9.7103,9.7103,0,0,0-3.35461,6.74A9.964,9.964,0,0,1,470.60568,535.3075Z" transform="translate(-329.03608 -146.74227)" fill="#3f3d56"/><path d="M472.40585,532.12862a9.86349,9.86349,0,0,1-.11121,1.06328,9.99679,9.99679,0,0,0,1.60714-4.95271c.01311-.27.04146-.539.07947-.80679A9.38181,9.38181,0,0,0,472.40585,532.12862Z" transform="translate(-329.03608 -146.74227)" opacity="0.15"/><path d="M475.51806,520.10833a9.62507,9.62507,0,0,0,2.45985.6955,9.89773,9.89773,0,0,0,.90133-1.0997A8.38739,8.38739,0,0,1,475.51806,520.10833Z" transform="translate(-329.03608 -146.74227)" opacity="0.15"/><path d="M479.14311,516.86068a9.949,9.949,0,0,1-.07038,2.5661,9.83448,9.83448,0,0,0,1.11307-2.29544l.04354-.13058-.13714-.01088A9.55592,9.55592,0,0,1,479.14311,516.86068Z" transform="translate(-329.03608 -146.74227)" opacity="0.15"/><path d="M478.228,507.47444a9.91161,9.91161,0,0,0-7.25857-3.35623,6.22938,6.22938,0,0,1-4.61281-2.12868l-.08134-.09325a14.01337,14.01337,0,0,0-2.55182-2.27146l-.0718-.04951-.06336.05975a9.47874,9.47874,0,0,1-1.99742,1.44307,7.269,7.269,0,0,0,1.297-1.87076l.04525-.09024-.08718-.051a13.94385,13.94385,0,0,0-20.659,9.02719,13.94642,13.94642,0,0,1,19.163-5.13776l.08718.051-.04525.09024a7.26926,7.26926,0,0,1-1.297,1.87076,9.47868,9.47868,0,0,0,1.99741-1.44307l.06337-.05975.0718.04951a14.01337,14.01337,0,0,1,2.55182,2.27146l.08133.09326a6.22944,6.22944,0,0,0,4.61282,2.12867,9.89007,9.89007,0,0,1,9.565,8.12834,11.98677,11.98677,0,0,0,1.43129-.34829l.06355-.01925.01125-.06532A9.85036,9.85036,0,0,0,478.228,507.47444Z" transform="translate(-329.03608 -146.74227)" opacity="0.15"/><path d="M499.04886,466.75383a31.84958,31.84958,0,0,1-26.603,31.41149l-.15732.02566-.12171-.10142a30.51655,30.51655,0,0,0-6.656-4.22513,21.8005,21.8005,0,0,1,3.52508,4.15475l.339.50961-.611.0294c-.52742.02566-1.05152.0385-1.55741.0385a32.118,32.118,0,0,1-8.793-1.21919,93.63086,93.63086,0,0,0-41.47214-1.87907,45.458,45.458,0,0,1-7.53721.62884,44.93133,44.93133,0,0,1-14.1355-87.57594l.30883-.10225.12192.30138a23.40468,23.40468,0,0,1,1.765,7.11391,30.52291,30.52291,0,0,0,.75863-7.898l-.00973-.28026.2724-.06831a45.12252,45.12252,0,0,1,10.91843-1.33924l.39846.00165a20.05806,20.05806,0,0,0,14.956-6.62582,31.83962,31.83962,0,0,1,48.3716,1.48579l.13413.166-.08859.19457a27.32206,27.32206,0,0,1-6.30664,9.27243,31.04045,31.04045,0,0,0,8.4101-5.80282l.31794-.30842.22313.38293a31.8183,31.8183,0,0,1,4.33152,16.03983l-.00041.16063c-.00042.05672-.00042.11385-.00042.17056a31.26636,31.26636,0,0,0,9.1619,22.44376A32.08311,32.08311,0,0,1,499.04886,466.75383Z" transform="translate(-329.03608 -146.74227)" fill="#3f3d56"/><g opacity="0.15"><path d="M460.11959,391.50282a22.49407,22.49407,0,0,1-4.012,4.92175,30.96211,30.96211,0,0,0,6.26856-3.91791Q461.26814,391.96086,460.11959,391.50282Z" transform="translate(-329.03608 -146.74227)"/><path d="M478.55133,429.51105A31.97,31.97,0,0,1,483.13,435.089a32.54708,32.54708,0,0,1-2.97907-13.6731c0-.05672,0-.11385.0004-.17055l.00041-.16063a31.81856,31.81856,0,0,0-4.3315-16.03983l-.22314-.38294-.318.30841a31.112,31.112,0,0,1-5.80764,4.42232A31.01389,31.01389,0,0,0,478.55133,429.51105Z" transform="translate(-329.03608 -146.74227)"/><path d="M469.39025,406.7361l-.0004.16063c-.00041.05671-.00041.11384-.00041.17056,0,.31256.00566.62434.01439.93563a33.16272,33.16272,0,0,0,3.77185-6.50215l.08857-.19458-.13411-.166a32.10042,32.10042,0,0,0-5.76052-5.57135A31.89066,31.89066,0,0,1,469.39025,406.7361Z" transform="translate(-329.03608 -146.74227)"/><path d="M489.31279,443.85966a28.78932,28.78932,0,0,1-4.05843-4.93763,31.8105,31.8105,0,0,1-23.57,44.89467l-.15732.02568-.1217-.10143a30.5172,30.5172,0,0,0-6.65606-4.22512,21.79991,21.79991,0,0,1,3.52506,4.15473l.33907.50963-.611.02938c-.52745.02568-1.05154.03851-1.55741.03851a32.11821,32.11821,0,0,1-8.793-1.21919,93.631,93.631,0,0,0-41.47214-1.87907,45.45764,45.45764,0,0,1-7.53719.62883,44.7262,44.7262,0,0,1-29.84116-11.37979,44.97143,44.97143,0,0,0,40.60261,25.72841,45.45767,45.45767,0,0,0,7.5372-.62884,93.631,93.631,0,0,1,41.47214,1.87907,32.11819,32.11819,0,0,0,8.793,1.21919c.50588,0,1.03-.01283,1.55742-.03851l.611-.02938-.33907-.50962a21.79968,21.79968,0,0,0-3.52506-4.15474,30.5169,30.5169,0,0,1,6.656,4.22512l.12171.10143.15731-.02568a31.82584,31.82584,0,0,0,16.867-54.30565Z" transform="translate(-329.03608 -146.74227)"/></g></svg>